<?xml version="1.0" standalone="no"?>
<!DOCTYPE svg PUBLIC "-//W3C//DTD SVG 20010904//EN"
 "http://www.w3.org/TR/2001/REC-SVG-20010904/DTD/svg10.dtd">
<svg version="1.0" xmlns="http://www.w3.org/2000/svg"
 width="700.000000pt" height="700.000000pt" viewBox="0 0 700.000000 700.000000"
 preserveAspectRatio="xMidYMid meet">
<metadata>
Created by potrace 1.11, written by Peter Selinger 2001-2013
</metadata>
<g transform="translate(0.000000,700.000000) scale(0.100000,-0.100000)"
fill="#000000" stroke="none">
<path d="M3245 6924 c-230 -22 -403 -51 -577 -94 -1229 -307 -2191 -1269
-2498 -2498 -30 -123 -60 -282 -82 -442 -17 -128 -17 -652 0 -780 76 -553 226
-984 498 -1422 510 -824 1365 -1403 2314 -1567 235 -41 302 -46 600 -46 298 0
365 5 600 46 949 164 1804 743 2314 1567 272 438 422 869 498 1422 17 128 17
652 0 780 -88 645 -296 1171 -654 1652 -564 758 -1367 1229 -2323 1364 -105
14 -594 27 -690 18z m559 -75 c553 -44 1107 -241 1585 -566 185 -126 309 -229
487 -407 281 -282 462 -531 638 -882 255 -509 369 -1057 344 -1657 -29 -692
-275 -1352 -719 -1923 -106 -137 -392 -426 -526 -532 -515 -406 -1066 -639
-1718 -724 -134 -17 -656 -17 -790 0 -652 85 -1203 318 -1718 724 -134 106
-420 395 -526 532 -444 571 -690 1231 -719 1923 -21 502 54 959 229 1400 122
308 301 614 511 877 105 130 374 399 504 504 524 420 1161 678 1810 732 224
18 368 18 608 -1z"/>
<path d="M4199 6540 c-103 -18 -191 -76 -229 -151 -39 -75 -42 -136 -39 -874
2 -701 2 -711 -19 -776 -39 -118 -103 -189 -210 -230 -80 -31 -265 -38 -347
-14 -177 51 -255 131 -288 295 -13 64 -15 180 -10 810 6 803 9 755 -49 820
-76 84 -161 110 -351 110 -167 0 -235 -10 -366 -52 -350 -112 -616 -367 -711
-683 -51 -169 -60 -312 -60 -992 l0 -542 -83 -39 c-252 -118 -482 -353 -631
-645 -228 -447 -268 -1030 -105 -1522 137 -410 404 -754 704 -905 135 -68 229
-91 375 -91 184 0 257 34 277 129 9 40 11 3221 3 3822 -5 385 -1 446 41 607
25 93 77 196 131 258 49 56 145 104 222 112 l58 6 -3 -634 c-4 -721 -7 -697
78 -868 113 -229 305 -340 643 -371 188 -18 526 -8 645 18 173 39 278 88 376
179 96 89 157 199 195 353 18 70 19 115 15 699 l-3 624 69 -5 c76 -6 157 -37
210 -82 68 -58 129 -179 158 -315 35 -167 37 -312 30 -2171 -3 -1004 -7 -1897
-8 -1985 -1 -186 11 -246 67 -311 l34 -40 -63 -47 c-35 -25 -104 -70 -152 -99
l-88 -53 -317 -3 -317 -3 -12 23 c-35 69 -138 141 -264 184 -74 25 -93 27
-245 28 -183 1 -245 -10 -356 -64 -296 -144 -264 -436 62 -551 74 -26 210 -49
290 -49 89 0 220 25 301 58 80 32 100 45 159 102 l43 41 313 -1 c337 0 378 4
476 54 122 62 480 320 502 361 9 17 35 30 99 50 434 134 750 509 885 1050 78
314 85 646 21 970 -35 173 -75 289 -160 460 -147 296 -337 496 -596 630 -58
30 -112 61 -119 70 -17 20 -17 43 -1 460 15 397 10 685 -14 825 -43 239 -118
414 -244 568 -110 134 -428 303 -691 367 -112 27 -261 38 -331 25z"/>
</g>
</svg>
