<?xml version="1.0" encoding="UTF-8" standalone="no"?>
<svg
   xmlns:dc="http://purl.org/dc/elements/1.1/"
   xmlns:cc="http://creativecommons.org/ns#"
   xmlns:rdf="http://www.w3.org/1999/02/22-rdf-syntax-ns#"
   xmlns:svg="http://www.w3.org/2000/svg"
   xmlns="http://www.w3.org/2000/svg"
   xmlns:sodipodi="http://sodipodi.sourceforge.net/DTD/sodipodi-0.dtd"
   xmlns:inkscape="http://www.inkscape.org/namespaces/inkscape"
   version="1.1"
   id="Capa_1"
   x="0px"
   y="0px"
   width="435.933px"
   height="435.933px"
   viewBox="0 0 435.933 435.933"
   style="enable-background:new 0 0 435.933 435.933;"
   xml:space="preserve"
   sodipodi:docname="phone-hang-up.svg"
   inkscape:version="1.0.2 (e86c870879, 2021-01-15)"><metadata
   id="metadata41"><rdf:RDF><cc:Work
       rdf:about=""><dc:format>image/svg+xml</dc:format><dc:type
         rdf:resource="http://purl.org/dc/dcmitype/StillImage" /></cc:Work></rdf:RDF></metadata><defs
   id="defs39" /><sodipodi:namedview
   pagecolor="#ffffff"
   bordercolor="#666666"
   borderopacity="1"
   objecttolerance="10"
   gridtolerance="10"
   guidetolerance="10"
   inkscape:pageopacity="0"
   inkscape:pageshadow="2"
   inkscape:window-width="1910"
   inkscape:window-height="1019"
   id="namedview37"
   showgrid="false"
   inkscape:zoom="1.9658984"
   inkscape:cx="217.96651"
   inkscape:cy="217.96651"
   inkscape:window-x="0"
   inkscape:window-y="0"
   inkscape:window-maximized="1"
   inkscape:current-layer="g4" />
<g
   id="g4">
	<path
   d="M286.482,279.088c0.944,1.249,0.939,2.973-0.023,4.225l-65.723,85.483c-0.658,0.867-1.682,1.368-2.762,1.368   c-1.081,0-2.102-0.501-2.764-1.368l-65.727-85.483c-0.476-0.621-0.722-1.368-0.722-2.12c0-0.741,0.236-1.485,0.705-2.104   c0.941-1.253,2.607-1.724,4.069-1.137l43.516,17.176V194.393c0-1.926,1.556-3.48,3.486-3.48h34.877c1.92,0,3.485,1.554,3.485,3.48   v100.74l43.516-17.177C283.873,277.37,285.54,277.841,286.482,279.088z M196.93,65.927C-28.392,70.252-1.475,181.812,3.69,198.193   c5.532,27.833,26.852,41.76,48.488,33.864l41.166-12.881c22.179-8.096,36.25-38.272,31.408-67.418l-0.917-5.518   c74.849-21.183,139.407-15.746,189.768-1.727l-0.396,2.353c-4.819,29.149,9.231,59.333,31.423,67.423l41.164,17.16   c18.604,6.791,36.965-6.287,45.271-27.171c0.107,0.09,0.173,0.15,0.173,0.15s1.139-2.812,2.288-7.625   c0.093-0.375,0.163-0.786,0.262-1.155c0.191-0.881,0.383-1.792,0.575-2.785c0.115-0.561,0.246-1.092,0.353-1.658l-0.041-0.035   C440.692,155.657,434.471,61.393,196.93,65.927z"
   id="path2"
   style="fill:#d40000" />
</g>
<g
   id="g6">
</g>
<g
   id="g8">
</g>
<g
   id="g10">
</g>
<g
   id="g12">
</g>
<g
   id="g14">
</g>
<g
   id="g16">
</g>
<g
   id="g18">
</g>
<g
   id="g20">
</g>
<g
   id="g22">
</g>
<g
   id="g24">
</g>
<g
   id="g26">
</g>
<g
   id="g28">
</g>
<g
   id="g30">
</g>
<g
   id="g32">
</g>
<g
   id="g34">
</g>
</svg>
