<?xml version="1.0" encoding="UTF-8" standalone="no"?>
<!-- Created with Inkscape (http://www.inkscape.org/) -->

<svg
   width="262.88379mm"
   height="207.0336mm"
   viewBox="0 0 262.88379 207.0336"
   version="1.1"
   id="svg5"
   xml:space="preserve"
   xmlns:inkscape="http://www.inkscape.org/namespaces/inkscape"
   xmlns:sodipodi="http://sodipodi.sourceforge.net/DTD/sodipodi-0.dtd"
   xmlns="http://www.w3.org/2000/svg"
   xmlns:svg="http://www.w3.org/2000/svg"><sodipodi:namedview
     id="namedview7"
     pagecolor="#505050"
     bordercolor="#ffffff"
     borderopacity="1"
     inkscape:showpageshadow="0"
     inkscape:pageopacity="0"
     inkscape:pagecheckerboard="1"
     inkscape:deskcolor="#505050"
     inkscape:document-units="mm"
     showgrid="false" /><defs
     id="defs2" /><path
     id="path2353"
     style="display:inline;fill:#ff0000;fill-opacity:1;stroke-width:1.04479"
     inkscape:label="path2353"
     d="M 131.24316,0.0021302 C 44.497628,0.26061948 12.930101,38.585946 11.588964,40.25807 8.7045334,43.944969 6.3555585,47.882689 4.4116253,52.33072 2.3319981,57.116759 0.95579527,62.155851 0.36535585,67.119997 L 0.09870401,67.139112 0,80.201365 c 0.03770521,9.533872 7.5458079,17.271534 16.747305,17.259927 l 46.229734,-0.132799 c 9.188098,-0.04555 16.649807,-7.833011 16.621721,-17.36174 L 79.53003,56.67877 c 1.141183,-0.331382 2.32497,-0.673017 3.573945,-1.028358 11.417712,-3.312356 27.054055,-7.839059 48.245125,-7.894092 21.24199,-0.06332 36.92878,4.38011 48.38206,7.619172 1.21482,0.342911 2.37841,0.677528 3.50004,0.980819 l 0.0357,15.620752 0.0279,7.688419 c 0.0281,9.544978 7.54127,17.278075 16.73386,17.253211 l 46.23388,-0.131258 c 9.18445,-0.02706 16.64932,-7.816754 16.6212,-17.361731 l -0.0749,-13.065869 -0.35708,0.0036 C 261.83428,61.39473 260.43146,56.35656 258.30731,51.54005 256.24749,46.993744 253.86652,43.071109 251.05917,39.568687 228.72366,11.280057 194.00361,-0.17981522 131.24316,0.0021302 Z M 21.200259,44.954422 c 0.06084,0.09628 0.117838,0.193754 0.188621,0.286809 -0.31862,0.136062 -0.621223,0.297728 -0.914678,0.472317 0.220006,-0.234643 0.406784,-0.438233 0.726071,-0.759111 z m 50.333885,2.97811 0.754864,0.390211 20.44137,-27.231127 c -0.04687,-0.07497 -30.389174,19.64549 -21.196234,26.840916 z m -54.453015,2.328545 c -0.01124,0.04761 -0.02943,0.09258 -0.03982,0.14053 -0.01986,0.0047 -0.03749,0.01223 -0.05735,0.01709 0.03265,-0.05226 0.06427,-0.105548 0.09716,-0.157603 z M 134.23522,95.832453 c -4.23355,0.02892 -7.64174,3.295818 -7.64191,7.324617 l -0.003,71.11711 -23.45232,-33.84858 c -2.99049,-4.31619 -8.129365,-5.55775 -11.522288,-2.78329 -3.392921,2.77446 -3.71708,8.48303 -0.726572,12.79922 l 36.1487,52.17304 c 0.1325,0.19123 0.27077,0.37436 0.41135,0.55345 1.27122,2.31914 3.82441,3.88562 6.78202,3.86539 3.22779,-0.022 5.9736,-1.92719 7.09724,-4.61625 l 36.60706,-52.83502 c 2.66068,-3.84013 2.07105,-9.16538 -1.32188,-11.93983 -3.39291,-2.77447 -8.26632,-1.91623 -10.92699,1.92391 l -23.8125,34.36845 0.003,-70.88198 c 1.7e-4,-4.0288 -3.40835,-7.249159 -7.64191,-7.220237 z"
     sodipodi:nodetypes="ccccccccccccccccccccccccccccccccccccscccscccsccscccs" /></svg>
